<?xml version="1.0" encoding="UTF-8" standalone="no"?>
<!DOCTYPE svg PUBLIC "-//W3C//DTD SVG 1.1//EN" "http://www.w3.org/Graphics/SVG/1.1/DTD/svg11.dtd">
<svg width="100%" height="100%" viewBox="0 0 1024 240" version="1.1" xmlns="http://www.w3.org/2000/svg" xmlns:xlink="http://www.w3.org/1999/xlink" xml:space="preserve" xmlns:serif="http://www.serif.com/" style="fill-rule:evenodd;clip-rule:evenodd;stroke-linejoin:round;stroke-miterlimit:2;">
    <g transform="matrix(1,0,0,1,-411.726,-84.5009)">
        <g transform="matrix(200,0,0,200,558.297,255.896)">
            <path d="M0.418,-0.138C0.418,-0.091 0.4,-0.054 0.364,-0.029C0.328,-0.003 0.276,0.01 0.21,0.01C0.139,0.01 0.083,-0.001 0.041,-0.023L0.041,-0.075C0.094,-0.049 0.151,-0.035 0.21,-0.035C0.262,-0.035 0.302,-0.044 0.329,-0.061C0.357,-0.079 0.37,-0.102 0.37,-0.131C0.37,-0.158 0.359,-0.18 0.338,-0.198C0.316,-0.216 0.28,-0.234 0.231,-0.252C0.178,-0.271 0.141,-0.288 0.119,-0.302C0.098,-0.315 0.081,-0.331 0.071,-0.348C0.06,-0.366 0.054,-0.387 0.054,-0.412C0.054,-0.452 0.071,-0.483 0.104,-0.506C0.138,-0.529 0.184,-0.541 0.244,-0.541C0.301,-0.541 0.356,-0.53 0.407,-0.509L0.389,-0.465C0.337,-0.486 0.289,-0.497 0.244,-0.497C0.201,-0.497 0.167,-0.49 0.141,-0.476C0.116,-0.461 0.103,-0.441 0.103,-0.416C0.103,-0.388 0.113,-0.366 0.133,-0.35C0.152,-0.333 0.191,-0.314 0.248,-0.294C0.296,-0.277 0.331,-0.261 0.353,-0.247C0.374,-0.233 0.391,-0.218 0.402,-0.2C0.413,-0.183 0.418,-0.162 0.418,-0.138Z" style="fill:rgb(24,87,164);fill-rule:nonzero;"/>
        </g>
        <g transform="matrix(200,0,0,200,651.461,255.896)">
            <path d="M0,-0.531L0.05,-0.531L0.162,-0.233C0.196,-0.141 0.218,-0.08 0.227,-0.048L0.23,-0.048C0.244,-0.09 0.266,-0.153 0.297,-0.236L0.409,-0.531L0.459,-0.531L0.221,0.086C0.202,0.136 0.186,0.17 0.173,0.188C0.16,0.205 0.145,0.218 0.127,0.227C0.11,0.236 0.089,0.24 0.064,0.24C0.045,0.24 0.025,0.237 0.002,0.23L0.002,0.188C0.021,0.193 0.041,0.196 0.063,0.196C0.08,0.196 0.094,0.192 0.107,0.184C0.12,0.176 0.131,0.164 0.141,0.148C0.152,0.131 0.163,0.105 0.177,0.07C0.191,0.034 0.199,0.011 0.203,0L0,-0.531Z" style="fill:rgb(24,87,164);fill-rule:nonzero;"/>
        </g>
        <g transform="matrix(200,0,0,200,743.258,255.896)">
            <path d="M0.459,0L0.459,-0.344C0.459,-0.398 0.448,-0.436 0.425,-0.461C0.403,-0.485 0.368,-0.497 0.321,-0.497C0.257,-0.497 0.211,-0.481 0.181,-0.449C0.152,-0.417 0.137,-0.365 0.137,-0.293L0.137,0L0.089,0L0.089,-0.531L0.13,-0.531L0.139,-0.458L0.142,-0.458C0.177,-0.513 0.238,-0.541 0.326,-0.541C0.447,-0.541 0.507,-0.476 0.507,-0.347L0.507,0L0.459,0Z" style="fill:rgb(24,87,164);fill-rule:nonzero;"/>
        </g>
        <g transform="matrix(200,0,0,200,861.226,255.896)">
            <path d="M0.411,0L0.399,-0.084L0.395,-0.084C0.368,-0.05 0.341,-0.026 0.313,-0.011C0.285,0.003 0.251,0.01 0.213,0.01C0.161,0.01 0.12,-0.004 0.091,-0.03C0.062,-0.057 0.048,-0.094 0.048,-0.141C0.048,-0.193 0.069,-0.233 0.113,-0.262C0.156,-0.29 0.218,-0.306 0.3,-0.307L0.401,-0.31L0.401,-0.345C0.401,-0.396 0.391,-0.434 0.37,-0.459C0.35,-0.485 0.317,-0.498 0.271,-0.498C0.222,-0.498 0.171,-0.484 0.118,-0.457L0.1,-0.499C0.158,-0.526 0.216,-0.54 0.273,-0.54C0.331,-0.54 0.375,-0.525 0.404,-0.495C0.432,-0.464 0.447,-0.417 0.447,-0.353L0.447,0L0.411,0ZM0.216,-0.034C0.272,-0.034 0.317,-0.05 0.35,-0.083C0.383,-0.115 0.399,-0.16 0.399,-0.218L0.399,-0.27L0.306,-0.266C0.232,-0.263 0.178,-0.251 0.147,-0.231C0.115,-0.212 0.099,-0.181 0.099,-0.139C0.099,-0.106 0.109,-0.08 0.13,-0.062C0.15,-0.043 0.179,-0.034 0.216,-0.034Z" style="fill:rgb(24,87,164);fill-rule:nonzero;"/>
        </g>
        <g transform="matrix(200,0,0,200,967.183,255.896)">
            <path d="M0.316,0.01C0.234,0.01 0.175,-0.021 0.137,-0.082L0.134,-0.082L0.135,-0.041C0.137,-0.017 0.137,0.009 0.137,0.038L0.137,0.24L0.089,0.24L0.089,-0.531L0.13,-0.531L0.139,-0.455L0.142,-0.455C0.179,-0.512 0.237,-0.541 0.317,-0.541C0.389,-0.541 0.443,-0.517 0.481,-0.47C0.518,-0.423 0.537,-0.355 0.537,-0.265C0.537,-0.178 0.517,-0.11 0.478,-0.062C0.438,-0.014 0.384,0.01 0.316,0.01ZM0.315,-0.033C0.369,-0.033 0.411,-0.053 0.441,-0.094C0.471,-0.134 0.486,-0.191 0.486,-0.263C0.486,-0.419 0.43,-0.497 0.317,-0.497C0.255,-0.497 0.21,-0.48 0.181,-0.446C0.152,-0.412 0.137,-0.357 0.137,-0.28L0.137,-0.264C0.137,-0.181 0.151,-0.122 0.179,-0.086C0.207,-0.051 0.252,-0.033 0.315,-0.033Z" style="fill:rgb(24,87,164);fill-rule:nonzero;"/>
        </g>
        <g transform="matrix(200,0,0,200,1086.23,255.896)">
            <path d="M0.418,-0.138C0.418,-0.091 0.4,-0.054 0.364,-0.029C0.328,-0.003 0.276,0.01 0.21,0.01C0.139,0.01 0.083,-0.001 0.041,-0.023L0.041,-0.075C0.094,-0.049 0.151,-0.035 0.21,-0.035C0.262,-0.035 0.302,-0.044 0.329,-0.061C0.357,-0.079 0.37,-0.102 0.37,-0.131C0.37,-0.158 0.359,-0.18 0.338,-0.198C0.316,-0.216 0.28,-0.234 0.231,-0.252C0.178,-0.271 0.141,-0.288 0.119,-0.302C0.098,-0.315 0.081,-0.331 0.071,-0.348C0.06,-0.366 0.054,-0.387 0.054,-0.412C0.054,-0.452 0.071,-0.483 0.104,-0.506C0.138,-0.529 0.184,-0.541 0.244,-0.541C0.301,-0.541 0.356,-0.53 0.407,-0.509L0.389,-0.465C0.337,-0.486 0.289,-0.497 0.244,-0.497C0.201,-0.497 0.167,-0.49 0.141,-0.476C0.116,-0.461 0.103,-0.441 0.103,-0.416C0.103,-0.388 0.113,-0.366 0.133,-0.35C0.152,-0.333 0.191,-0.314 0.248,-0.294C0.296,-0.277 0.331,-0.261 0.353,-0.247C0.374,-0.233 0.391,-0.218 0.402,-0.2C0.413,-0.183 0.418,-0.162 0.418,-0.138Z" style="fill:rgb(24,87,164);fill-rule:nonzero;"/>
        </g>
        <g transform="matrix(200,0,0,200,1179.39,255.896)">
            <path d="M0.303,0.01C0.226,0.01 0.166,-0.014 0.123,-0.062C0.08,-0.109 0.058,-0.176 0.058,-0.261C0.058,-0.346 0.079,-0.414 0.121,-0.465C0.162,-0.516 0.218,-0.541 0.289,-0.541C0.352,-0.541 0.401,-0.519 0.437,-0.476C0.473,-0.432 0.491,-0.373 0.491,-0.298L0.491,-0.259L0.109,-0.259C0.11,-0.186 0.127,-0.13 0.16,-0.092C0.193,-0.053 0.241,-0.034 0.303,-0.034C0.333,-0.034 0.36,-0.036 0.383,-0.041C0.406,-0.045 0.435,-0.054 0.47,-0.068L0.47,-0.024C0.44,-0.011 0.413,-0.002 0.387,0.003C0.362,0.007 0.334,0.01 0.303,0.01ZM0.289,-0.498C0.238,-0.498 0.197,-0.481 0.166,-0.448C0.135,-0.414 0.117,-0.365 0.112,-0.302L0.44,-0.302C0.44,-0.363 0.427,-0.411 0.4,-0.446C0.373,-0.481 0.336,-0.498 0.289,-0.498Z" style="fill:rgb(24,87,164);fill-rule:nonzero;"/>
        </g>
    </g>
</svg>
